<svg width="292" height="292" viewBox="0 0 292 292" fill="none" xmlns="http://www.w3.org/2000/svg">
    <rect x="81.5221" y="80.6608" width="129.817" height="129.817" rx="11" stroke="#1E4A78" stroke-width="8" stroke-linecap="round" stroke-linejoin="round"/>
    <rect x="97.0266" y="97.0266" width="97.9469" height="97.9469" rx="6" fill="#1E4A78" stroke="#1E4A78" stroke-width="8" stroke-linecap="round" stroke-linejoin="round"/>
    <line x1="101.947" y1="78.6902" x2="101.947" y2="54.82" stroke="#1E4A78" stroke-width="8" stroke-linecap="round" stroke-linejoin="round"/>
    <line x1="132.956" y1="79.5516" x2="132.956" y2="25.5339" stroke="#1E4A78" stroke-width="8" stroke-linecap="round" stroke-linejoin="round"/>
    <line x1="186.36" y1="76.9676" x2="186.36" y2="63.4336" stroke="#1E4A78" stroke-width="8" stroke-linecap="round" stroke-linejoin="round"/>
    <line x1="187.469" y1="62.3245" x2="195.835" y2="62.3245" stroke="#1E4A78" stroke-width="8" stroke-linecap="round" stroke-linejoin="round"/>
    <line x1="162.242" y1="76.9676" x2="162.242" y2="54.8201" stroke="#1E4A78" stroke-width="8" stroke-linecap="round" stroke-linejoin="round"/>
    <path d="M172.578 42.2065C172.578 47.0104 168.516 51.1268 163.227 51.1268C157.938 51.1268 153.876 47.0104 153.876 42.2065C153.876 37.4025 157.938 33.2861 163.227 33.2861C168.516 33.2861 172.578 37.4025 172.578 42.2065Z" stroke="#1E4A78" stroke-width="8" stroke-linecap="round" stroke-linejoin="round"/>
    <circle cx="208.448" cy="62.8791" r="8.92035" stroke="#1E4A78" stroke-width="8" stroke-linecap="round" stroke-linejoin="round"/>
    <path d="M111.422 42.6372C111.422 47.9262 107.305 51.9882 102.502 51.9882C97.6976 51.9882 93.5812 47.9262 93.5812 42.6372C93.5812 37.3481 97.6976 33.2861 102.502 33.2861C107.305 33.2861 111.422 37.3481 111.422 42.6372Z" stroke="#1E4A78" stroke-width="8" stroke-linecap="round" stroke-linejoin="round"/>
    <circle cx="133.51" cy="12.9204" r="8.92035" stroke="#1E4A78" stroke-width="8" stroke-linecap="round" stroke-linejoin="round"/>
    <line x1="213.31" y1="96.7787" x2="237.18" y2="96.7787" stroke="#1E4A78" stroke-width="8" stroke-linecap="round" stroke-linejoin="round"/>
    <line x1="212.448" y1="127.788" x2="266.466" y2="127.788" stroke="#1E4A78" stroke-width="8" stroke-linecap="round" stroke-linejoin="round"/>
    <line x1="215.032" y1="181.192" x2="228.566" y2="181.192" stroke="#1E4A78" stroke-width="8" stroke-linecap="round" stroke-linejoin="round"/>
    <line x1="229.676" y1="182.301" x2="229.676" y2="190.667" stroke="#1E4A78" stroke-width="8" stroke-linecap="round" stroke-linejoin="round"/>
    <line x1="215.032" y1="157.074" x2="237.18" y2="157.074" stroke="#1E4A78" stroke-width="8" stroke-linecap="round" stroke-linejoin="round"/>
    <path d="M249.794 167.41C244.99 167.41 240.873 163.348 240.873 158.059C240.873 152.77 244.99 148.708 249.794 148.708C254.597 148.708 258.714 152.77 258.714 158.059C258.714 163.348 254.597 167.41 249.794 167.41Z" stroke="#1E4A78" stroke-width="8" stroke-linecap="round" stroke-linejoin="round"/>
    <circle cx="229.121" cy="203.28" r="8.92035" transform="rotate(90 229.121 203.28)" stroke="#1E4A78" stroke-width="8" stroke-linecap="round" stroke-linejoin="round"/>
    <path d="M249.363 106.254C244.074 106.254 240.012 102.137 240.012 97.3333C240.012 92.5294 244.074 88.413 249.363 88.413C254.652 88.413 258.714 92.5294 258.714 97.3333C258.714 102.137 254.652 106.254 249.363 106.254Z" stroke="#1E4A78" stroke-width="8" stroke-linecap="round" stroke-linejoin="round"/>
    <circle cx="279.08" cy="128.342" r="8.92035" transform="rotate(90 279.08 128.342)" stroke="#1E4A78" stroke-width="8" stroke-linecap="round" stroke-linejoin="round"/>
    <line x1="195.221" y1="212.448" x2="195.221" y2="236.319" stroke="#1E4A78" stroke-width="8" stroke-linecap="round" stroke-linejoin="round"/>
    <line x1="164.212" y1="211.587" x2="164.212" y2="265.605" stroke="#1E4A78" stroke-width="8" stroke-linecap="round" stroke-linejoin="round"/>
    <line x1="110.808" y1="214.171" x2="110.808" y2="227.705" stroke="#1E4A78" stroke-width="8" stroke-linecap="round" stroke-linejoin="round"/>
    <line x1="109.699" y1="228.814" x2="101.333" y2="228.814" stroke="#1E4A78" stroke-width="8" stroke-linecap="round" stroke-linejoin="round"/>
    <line x1="134.926" y1="214.171" x2="134.926" y2="236.319" stroke="#1E4A78" stroke-width="8" stroke-linecap="round" stroke-linejoin="round"/>
    <path d="M124.59 248.932C124.59 244.128 128.652 240.012 133.941 240.012C139.23 240.012 143.292 244.128 143.292 248.932C143.292 253.736 139.23 257.852 133.941 257.852C128.652 257.852 124.59 253.736 124.59 248.932Z" stroke="#1E4A78" stroke-width="8" stroke-linecap="round" stroke-linejoin="round"/>
    <circle cx="88.7198" cy="228.26" r="8.92035" transform="rotate(-180 88.7198 228.26)" stroke="#1E4A78" stroke-width="8" stroke-linecap="round" stroke-linejoin="round"/>
    <path d="M185.746 248.501C185.746 243.212 189.863 239.15 194.667 239.15C199.471 239.15 203.587 243.212 203.587 248.501C203.587 253.791 199.471 257.852 194.667 257.852C189.863 257.852 185.746 253.791 185.746 248.501Z" stroke="#1E4A78" stroke-width="8" stroke-linecap="round" stroke-linejoin="round"/>
    <circle cx="163.658" cy="278.218" r="8.92035" transform="rotate(-180 163.658 278.218)" stroke="#1E4A78" stroke-width="8" stroke-linecap="round" stroke-linejoin="round"/>
    <line x1="78.6903" y1="191.776" x2="54.8201" y2="191.776" stroke="#1E4A78" stroke-width="8" stroke-linecap="round" stroke-linejoin="round"/>
    <line x1="79.5516" y1="160.767" x2="25.5339" y2="160.767" stroke="#1E4A78" stroke-width="8" stroke-linecap="round" stroke-linejoin="round"/>
    <line x1="76.9675" y1="107.363" x2="63.4336" y2="107.363" stroke="#1E4A78" stroke-width="8" stroke-linecap="round" stroke-linejoin="round"/>
    <line x1="62.3245" y1="106.254" x2="62.3245" y2="97.8879" stroke="#1E4A78" stroke-width="8" stroke-linecap="round" stroke-linejoin="round"/>
    <line x1="76.9675" y1="131.481" x2="54.82" y2="131.481" stroke="#1E4A78" stroke-width="8" stroke-linecap="round" stroke-linejoin="round"/>
    <path d="M42.2065 121.145C47.0104 121.145 51.1268 125.207 51.1268 130.496C51.1268 135.785 47.0104 139.847 42.2065 139.847C37.4025 139.847 33.2861 135.785 33.2861 130.496C33.2861 125.207 37.4025 121.145 42.2065 121.145Z" stroke="#1E4A78" stroke-width="8" stroke-linecap="round" stroke-linejoin="round"/>
    <circle cx="62.8791" cy="85.2743" r="8.92035" transform="rotate(-90 62.8791 85.2743)" stroke="#1E4A78" stroke-width="8" stroke-linecap="round" stroke-linejoin="round"/>
    <path d="M42.6372 182.301C47.9262 182.301 51.9882 186.417 51.9882 191.221C51.9882 196.025 47.9262 200.142 42.6372 200.142C37.3481 200.142 33.2861 196.025 33.2861 191.221C33.2861 186.417 37.3481 182.301 42.6372 182.301Z" stroke="#1E4A78" stroke-width="8" stroke-linecap="round" stroke-linejoin="round"/>
    <circle cx="12.9204" cy="160.212" r="8.92035" transform="rotate(-90 12.9204 160.212)" stroke="#1E4A78" stroke-width="8" stroke-linecap="round" stroke-linejoin="round"/>
    <g filter="url(#filter0_dd_1_259)">
        <path d="M143.834 113.358H140.474V139.086L136.874 139.134L120.122 119.31H119.93V133.614H124.25V139.086H110.57V133.614H113.93V113.358H110.042V107.886H118.538L134.282 126.414H134.474V113.358H129.962V107.886H143.834V113.358ZM182.847 113.358H180.159L171.087 126.894V133.614H176.175V139.086H159.855V133.614H164.655V126.846L155.295 113.358H152.511V107.886H165.423V113.358H162.831L168.063 121.23H168.351L173.535 113.358H170.559V107.886H182.847V113.358ZM137.94 177.822C137.94 180.318 137.092 182.494 135.396 184.35C133.732 186.174 131.108 187.086 127.524 187.086H111.108V181.614H114.468V161.358H111.108V155.886H127.332C130.18 155.886 132.468 156.558 134.196 157.902C135.956 159.214 136.836 160.974 136.836 163.182C136.836 164.814 136.34 166.238 135.348 167.454C134.356 168.67 132.964 169.422 131.172 169.71V169.902C133.412 170.222 135.092 171.102 136.212 172.542C137.364 173.982 137.94 175.742 137.94 177.822ZM129.924 164.862C129.924 163.454 129.492 162.526 128.628 162.078C127.796 161.598 126.804 161.358 125.652 161.358H120.9V168.654H125.172C126.996 168.654 128.244 168.286 128.916 167.55C129.588 166.814 129.924 165.918 129.924 164.862ZM131.028 177.582C131.028 174.958 129.444 173.646 126.276 173.646H120.9V181.614H125.844C129.3 181.614 131.028 180.27 131.028 177.582ZM181.479 161.358H178.119V187.086L174.519 187.134L157.767 167.31H157.575V181.614H161.895V187.086H148.215V181.614H151.575V161.358H147.687V155.886H156.183L171.927 174.414H172.119V161.358H167.607V155.886H181.479V161.358Z" fill="white"/>
    </g>
    <defs>
        <filter id="filter0_dd_1_259" x="106.042" y="107.886" width="80.8047" height="87.248" filterUnits="userSpaceOnUse" color-interpolation-filters="sRGB">
            <feFlood flood-opacity="0" result="BackgroundImageFix"/>
            <feColorMatrix in="SourceAlpha" type="matrix" values="0 0 0 0 0 0 0 0 0 0 0 0 0 0 0 0 0 0 127 0" result="hardAlpha"/>
            <feOffset dy="4"/>
            <feGaussianBlur stdDeviation="2"/>
            <feComposite in2="hardAlpha" operator="out"/>
            <feColorMatrix type="matrix" values="0 0 0 0 0 0 0 0 0 0 0 0 0 0 0 0 0 0 0.25 0"/>
            <feBlend mode="normal" in2="BackgroundImageFix" result="effect1_dropShadow_1_259"/>
            <feColorMatrix in="SourceAlpha" type="matrix" values="0 0 0 0 0 0 0 0 0 0 0 0 0 0 0 0 0 0 127 0" result="hardAlpha"/>
            <feOffset dy="4"/>
            <feGaussianBlur stdDeviation="2"/>
            <feComposite in2="hardAlpha" operator="out"/>
            <feColorMatrix type="matrix" values="0 0 0 0 0 0 0 0 0 0 0 0 0 0 0 0 0 0 0.25 0"/>
            <feBlend mode="normal" in2="effect1_dropShadow_1_259" result="effect2_dropShadow_1_259"/>
            <feBlend mode="normal" in="SourceGraphic" in2="effect2_dropShadow_1_259" result="shape"/>
        </filter>
    </defs>
</svg>
